<?xml version="1.0" encoding="UTF-8" standalone="no"?>
<!-- Created with Inkscape (http://www.inkscape.org/) -->

<svg
   xmlns:dc="http://purl.org/dc/elements/1.1/"
   xmlns:cc="http://creativecommons.org/ns#"
   xmlns:rdf="http://www.w3.org/1999/02/22-rdf-syntax-ns#"
   xmlns:svg="http://www.w3.org/2000/svg"
   xmlns="http://www.w3.org/2000/svg"
   xmlns:sodipodi="http://sodipodi.sourceforge.net/DTD/sodipodi-0.dtd"
   xmlns:inkscape="http://www.inkscape.org/namespaces/inkscape"
   width="97.72686mm"
   height="95.589577mm"
   viewBox="0 0 97.72686 95.589577"
   version="1.1"
   id="svg8"
   inkscape:version="0.92.3 (2405546, 2018-03-11)"
   sodipodi:docname="qh_logo.svg">
  <defs
     id="defs2" />
  <sodipodi:namedview
     id="base"
     pagecolor="#ffffff"
     bordercolor="#666666"
     borderopacity="1.0"
     inkscape:pageopacity="0.0"
     inkscape:pageshadow="2"
     inkscape:zoom="1.4"
     inkscape:cx="294.96571"
     inkscape:cy="237.93255"
     inkscape:document-units="mm"
     inkscape:current-layer="layer1"
     showgrid="false"
     inkscape:window-width="2048"
     inkscape:window-height="1097"
     inkscape:window-x="0"
     inkscape:window-y="27"
     inkscape:window-maximized="1" />
  <metadata
     id="metadata5">
    <rdf:RDF>
      <cc:Work
         rdf:about="">
        <dc:format>image/svg+xml</dc:format>
        <dc:type
           rdf:resource="http://purl.org/dc/dcmitype/StillImage" />
        <dc:title></dc:title>
      </cc:Work>
    </rdf:RDF>
  </metadata>
  <g
     inkscape:label="Layer 1"
     inkscape:groupmode="layer"
     id="layer1"
     transform="translate(-6.2985984,-4.4592514)">
    <path
       inkscape:connector-curvature="0"
       id="path916"
       d="m 52.009497,99.814803 c -2.959642,-0.2106 -6.160466,-0.808227 -7.276042,-1.358524 -0.436562,-0.215347 -1.000635,-0.344587 -1.253495,-0.287207 -0.252862,0.0574 -0.907706,-0.13304 -1.455208,-0.423167 -0.547505,-0.29014 -1.454872,-0.590847 -2.016371,-0.668257 -1.152559,-0.15888 -7.225903,-4.053776 -8.720068,-5.592268 -0.885272,-0.911537 -1.672773,-2.816211 -1.368161,-3.309082 0.337064,-0.545381 1.614398,-0.210828 4.188399,1.096996 1.467996,0.745879 3.566176,1.571377 4.66262,1.834444 1.096444,0.263067 3.115405,0.912627 4.486582,1.443469 2.897502,1.121739 5.711634,1.715936 8.1267,1.715936 1.90939,0 3.137474,0.485787 3.411612,1.349514 0.44574,1.404401 -1.02601,1.666141 -6.88761,1.224951 -2.619404,-0.197157 -2.63526,-0.194817 -1.5875,0.23426 0.582084,0.23838 2.591557,0.584657 4.4655,0.769517 2.254189,0.222377 3.481258,0.456007 3.626117,0.690384 0.176043,0.28485 0.382098,0.29269 1.051481,0.04 0.712123,-0.268787 1.019976,-0.232397 2.12857,0.25167 0.712822,0.311247 1.29604,0.646464 1.29604,0.744934 0,0.23082 -2.174147,0.529427 -3.410365,0.468407 -0.525394,-0.0259 -2.086353,-0.127627 -3.468801,-0.225997 z m 20.637459,-2.884005 c 0,-0.135717 -0.238127,-0.322327 -0.529167,-0.414707 -0.797354,-0.253067 -0.653587,-0.526447 0.750767,-1.427611 0.926204,-0.594347 1.602561,-0.823657 2.447375,-0.829747 0.642107,-0.005 1.398574,-0.183217 1.681041,-0.396867 0.282477,-0.213657 0.699197,-0.389217 0.926034,-0.390137 0.22685,-7.9e-4 0.620027,-0.366377 0.873717,-0.812127 0.355337,-0.624338 0.584424,-0.77138 0.997524,-0.640263 0.431547,0.136967 0.610487,-0.0074 0.916374,-0.73954 0.632077,-1.512789 5.627127,-7.331392 6.293724,-7.331392 1.027194,0 4.163336,-2.090886 4.163336,-2.775723 0,-0.16251 0.408747,-0.691647 0.908324,-1.175861 0.49958,-0.484214 1.045504,-1.211585 1.213184,-1.616382 0.16767,-0.404797 0.583107,-0.805831 0.923184,-0.891186 0.34008,-0.08536 1.193124,-0.839856 1.895651,-1.676667 0.702537,-0.836811 1.396391,-1.607717 1.541911,-1.713124 0.624907,-0.45266 0.342547,0.896678 -0.626597,2.994406 -1.127404,2.440273 -2.953702,4.905949 -4.907923,6.626125 -0.674694,0.593894 -1.750508,1.81098 -2.390705,2.704631 -1.204364,1.681176 -2.643095,3.01217 -4.564893,4.223052 -0.612207,0.385736 -1.235004,0.929119 -1.383994,1.207518 -0.920544,1.720063 -11.128867,6.375826 -11.128867,5.075602 z M 60.036442,96.344501 c -1.289402,-0.289457 -1.988529,-0.927524 -1.408846,-1.285781 0.586894,-0.362717 3.500541,-0.777717 4.303982,-0.613027 0.404593,0.0829 0.866926,0.396127 1.027409,0.695997 0.241747,0.451707 0.189971,0.627644 -0.301913,1.025954 -0.644491,0.521867 -1.826601,0.579617 -3.620632,0.176857 z m 15.086132,-5.652587 c -0.33195,-0.865061 1.371181,-1.981007 3.023362,-1.981007 1.231631,0 1.449971,0.168896 1.089364,0.842695 -0.677877,1.266634 -3.738429,2.113724 -4.112726,1.138312 z M 19.396263,82.030177 C 18.912542,81.266193 18.368773,80.136594 18.187885,79.519959 17.918182,78.600556 17.579478,78.208983 16.3057,77.343975 14.424412,76.066419 13.714929,75.208878 13.484096,73.933544 13.202656,72.378609 12.304062,70.145708 11.465175,68.916753 9.6372423,66.238868 8.6332789,62.940884 7.8256075,56.960907 7.6585445,55.72398 7.4112645,54.598839 7.2760948,54.460594 6.7158931,53.887642 7.0530038,53.248795 8.2000642,52.709613 9.6407383,52.032415 9.8562013,51.571627 8.9295989,51.149437 8.3290882,50.875826 8.1855062,50.895151 7.9583512,51.28017 7.2531528,52.475457 6.8054171,52.861934 6.4875921,52.549697 6.2458924,52.312246 6.2378014,51.319733 6.4530921,48.316363 6.7089811,44.746571 6.8575558,43.999972 8.1025752,40.027573 8.8551219,37.62648 9.6923103,35.226719 9.9629973,34.694772 10.479207,33.68033 11.62534,32.61924 12.204875,32.61924 c 0.18737,0 0.483127,-0.446484 0.657236,-0.992187 0.472199,-1.479984 1.636577,-3.414938 3.303735,-5.490105 0.818364,-1.018645 1.917729,-2.617419 2.443033,-3.552833 1.724387,-3.070621 5.086659,-6.16971 11.440207,-10.544716 1.938562,-1.334879 4.198765,-2.1743257 5.854353,-2.1743257 0.46191,0 0.889815,-0.238482 1.205508,-0.6718567 0.57231,-0.7856524 3.596428,-1.9739748 5.023498,-1.9739748 0.663535,0 1.419384,-0.315585 2.526437,-1.0548474 2.397266,-1.6008321 3.063611,-1.7224311 9.334995,-1.7035191 7.977568,0.02406 11.730538,0.5913007 14.96006,2.2611388 0.806487,0.4169927 2.519815,1.1142754 3.807429,1.5495151 2.860135,0.9667934 3.293782,1.2187531 7.285498,4.2330478 3.232762,2.441184 3.868689,3.265521 3.251232,4.214469 -0.442787,0.68049 -1.661891,0.394285 -3.241142,-0.760908 -1.691271,-1.237142 -3.071852,-1.990625 -8.865199,-4.838389 l -4.233306,-2.0809134 -4.762489,0.03756 c -2.619375,0.02066 -5.298281,-0.0088 -5.953125,-0.06537 -0.654844,-0.05662 -1.340599,0.0089 -1.523899,0.145482 -0.407014,0.303376 -2.819551,0.275245 -3.445912,-0.04018 C 50.414189,8.6838309 48.058786,8.9584716 47.203463,9.5908393 46.604766,10.033474 46.193156,10.141859 45.568401,10.02138 45.10918,9.93282 44.257206,9.8228813 43.675122,9.7770613 c -0.582083,-0.04582 -1.306975,-0.217242 -1.61087,-0.3809387 -0.609217,-0.328163 -1.51384,-0.176211 -2.417035,0.4059957 -0.323578,0.2085807 -1.097484,0.5288187 -1.719792,0.7116397 -0.916318,0.269196 -1.147215,0.463718 -1.214273,1.02298 -0.09892,0.824981 -1.047806,1.665059 -3.495241,3.094438 -2.341282,1.367382 -6.555256,4.508336 -8.636182,6.437114 -0.896993,0.831408 -2.168086,2.371511 -2.824655,3.422446 -0.656566,1.050939 -1.848173,2.52924 -2.648011,3.285117 -1.590534,1.503114 -3.211253,4.030329 -4.294809,6.696977 -0.914201,2.249869 -2.458347,8.866595 -2.654715,11.375576 -0.195884,2.50281 -0.544478,3.897437 -1.206608,4.827312 -0.448437,0.629774 -0.464757,0.752552 -0.117732,0.885719 0.488585,0.187487 0.740204,0.943187 1.603748,4.816613 0.811281,3.63901 2.283709,8.431472 3.487044,11.349648 0.491657,1.192311 0.893924,2.396644 0.893924,2.676301 0,0.279654 0.238125,0.811188 0.529167,1.181187 0.291041,0.369998 0.529166,0.81376 0.529166,0.986136 0,0.172376 0.238125,0.616138 0.529167,0.986137 0.383066,0.486989 0.529167,1.073356 0.529167,2.123789 0,1.203172 0.16511,1.722866 0.966507,3.042105 0.893505,1.470869 0.942713,1.656853 0.651467,2.462279 -0.173273,0.479179 -0.238106,1.177769 -0.144076,1.552421 0.260035,1.036058 -0.0447,0.823368 -1.014217,-0.707876 z m 68.997563,-2.301681 c -0.195867,-0.617152 0.0667,-1.060614 2.514888,-4.246756 0.726784,-0.945885 1.755468,-2.577259 2.285945,-3.625273 0.990694,-1.957202 1.389934,-2.322383 2.242988,-2.051632 1.185414,0.376237 0.868144,1.711984 -1.097014,4.618572 -0.541137,0.800364 -1.344341,2.169583 -1.784908,3.042708 -0.995307,1.972535 -1.588831,2.519849 -2.927295,2.699377 -0.912234,0.122357 -1.075404,0.0646 -1.234604,-0.436996 z M 67.937357,61.935068 c -0.744788,-0.744795 -0.744788,-19.233243 0,-19.978037 0.666945,-0.666952 8.064194,-0.720875 8.471549,-0.06175 0.157804,0.255192 0.74158,0.404384 1.297466,0.331537 1.025954,-0.134456 2.848623,1.144304 2.848623,1.998549 0,0.257236 -0.306915,0.02952 -0.682018,-0.506013 -1.145867,-1.635968 -1.946656,-1.234464 -1.946656,0.976033 0,1.389753 -0.220214,2.081736 -0.766695,2.409306 -0.730204,0.437681 -0.730204,0.48796 0,1.055831 1.018812,0.792352 0.975727,1.019064 -0.422378,2.221659 -1.066456,0.917334 -1.135175,1.141035 -0.666548,2.169562 0.867371,1.903679 1.855621,1.464442 1.855621,-0.824751 0,-2.157921 0.340806,-2.413076 1.504975,-1.126682 0.903105,0.997928 0.597846,2.44174 -0.658418,3.11408 -0.89572,0.479372 -1.181473,2.174693 -0.366559,2.174693 0.944833,0 3.02489,-1.82813 3.02489,-2.658521 0,-0.55432 0.302373,-0.846398 0.87623,-0.846398 0.481919,0 0.876231,-0.210436 0.876231,-0.46764 0,-0.268262 -0.373581,-0.349067 -0.876231,-0.189532 -0.665592,0.21125 -0.87623,0.07874 -0.87623,-0.55128 0,-0.883827 -1.469941,-2.426994 -2.738193,-2.874604 -1.078925,-0.380786 -0.953079,-0.948755 0.340872,-1.538322 0.609177,-0.277558 1.220336,-0.798472 1.358137,-1.157587 0.19324,-0.503603 0.44741,-0.547582 1.11128,-0.192297 0.639309,0.34215 0.740334,0.605698 0.392718,1.024545 -0.627188,0.755712 -0.117898,3.099707 0.867205,3.991209 1.130737,1.023301 2.16454,0.655879 3.107551,-1.104462 0.449779,-0.839612 0.81339,-1.233916 0.808042,-0.87623 -0.005,0.357687 -0.395272,1.143217 -0.866477,1.745625 -1.099342,1.405426 -1.090301,2.215792 0.0462,4.142066 1.025385,1.737932 0.873233,3.465541 -0.346474,3.933587 -0.668502,0.256535 -0.663518,0.195177 0.04819,-0.591191 1.467618,-1.621708 -0.538285,-5.401489 -2.351532,-4.431064 -1.097073,0.587144 -2.056875,3.414191 -1.386668,4.084396 0.705328,0.705344 0.600119,1.054192 -0.396559,1.314832 -0.583163,0.152505 -1.03367,-0.05284 -1.329755,-0.606076 -0.246278,-0.460192 -0.742768,-0.836711 -1.1033,-0.836711 -0.360527,0 -0.76898,-0.295728 -0.90767,-0.657172 -0.138762,-0.361446 -0.526814,-0.657173 -0.862492,-0.657173 -0.335655,0 -0.610281,0.295727 -0.610281,0.657173 0,0.361444 0.295721,0.657172 0.657159,0.657172 0.486792,0 0.657181,0.511135 0.657181,1.971517 0,2.236553 0.728758,2.604373 1.953097,0.985757 0.742623,-0.981762 0.74307,-0.981319 0.109618,0.109536 -0.445605,0.767244 -1.013767,1.095287 -1.897013,1.095287 -0.69351,0 -1.41856,0.246439 -1.611269,0.547645 -0.471454,0.736956 -7.809456,0.755774 -8.543315,0.02191 z m 7.720982,-4.001247 c 0.08197,-0.422592 -0.137933,-0.730393 -0.521775,-0.730393 -0.813887,0 -1.305116,0.714192 -0.919912,1.337472 0.396294,0.641208 1.271034,0.272862 1.441687,-0.607079 z m 5.115706,-1.533603 c 0,-0.7924 -0.857519,-0.647739 -1.027588,0.173353 -0.09472,0.456827 0.06955,0.657111 0.438104,0.534274 0.324219,-0.108079 0.589484,-0.426505 0.589484,-0.707627 z m -5.476398,-1.190065 c 0,-0.693522 -1.410794,-2.826913 -1.87324,-2.832697 -0.392142,-0.005 -0.381379,-0.104998 0.04007,-0.372217 0.497799,-0.315667 1.833218,-2.469725 1.833218,-2.957018 0,-0.09294 -0.246427,-0.167728 -0.547645,-0.166206 -0.301198,0.0013 -0.895058,0.613149 -1.319667,1.359167 -0.499774,0.878035 -1.001927,1.268181 -1.423875,1.106267 -0.440986,-0.169223 -0.651827,0.02883 -0.651827,0.612348 0,0.535666 0.296234,0.862481 0.781763,0.862481 0.429979,0 1.131151,0.591456 1.558166,1.314345 0.679463,1.150245 1.603085,1.768762 1.603085,1.07353 z M 80.9931,47.783958 c 0,-0.361444 -0.295717,-0.657172 -0.657159,-0.657172 -0.36146,0 -0.657176,0.295728 -0.657176,0.657172 0,0.361444 0.295716,0.657172 0.657176,0.657172 0.361442,0 0.657159,-0.295728 0.657159,-0.657172 z m -5.550929,-1.788717 c -0.301881,-0.786661 -1.458864,-0.81582 -1.458864,-0.03676 0,0.814386 0.419547,1.14793 1.110453,0.882806 0.322662,-0.123826 0.479435,-0.504543 0.348411,-0.846044 z m 22.190984,11.732261 c -0.10913,-0.176572 -0.279377,-2.951366 -0.378317,-6.166212 -0.105,-3.411326 -0.30808,-6.155312 -0.487717,-6.590004 -0.43204,-1.045432 -0.38282,-2.708269 0.108267,-3.65793 0.509987,-0.986211 0.3257,-2.512674 -0.500577,-4.146222 -0.562957,-1.112986 -0.564837,-1.149631 -0.0774,-1.511102 0.33933,-0.251632 0.646407,-0.291864 0.957397,-0.125433 0.251797,0.134762 0.533007,0.169838 0.624897,0.07794 0.362067,-0.362066 0.117897,-1.181674 -1.042697,-3.50008 -0.951164,-1.900068 -1.172901,-2.584506 -1.037304,-3.201895 0.15562,-0.70852 0.10732,-0.785244 -0.494397,-0.785244 -0.366767,0 -0.740434,-0.119062 -0.830374,-0.264583 -0.309187,-0.500277 -0.578327,-0.26248 -0.893484,0.789432 -0.461417,1.5401 -1.048974,1.744181 -2.403128,0.834715 -1.332111,-0.894664 -2.039608,-1.909471 -2.266178,-3.25053 -0.238957,-1.414418 0.0304,-2.000941 1.077534,-2.346539 0.502367,-0.165796 0.913397,-0.389001 0.913397,-0.496012 0,-0.107011 -0.35718,-0.536771 -0.793747,-0.955024 -0.782024,-0.749239 -1.041344,-1.455209 -0.534517,-1.455209 1.232544,0 4.767833,2.571771 4.767833,3.468391 0,0.159674 0.534367,0.884669 1.187484,1.611096 1.973388,2.194901 3.478549,4.913402 5.028523,9.082125 2.25676,6.069613 2.73336,8.0855 3.21201,13.585954 0.42705,4.90741 0.32535,6.883109 -0.36607,7.112032 -0.2271,0.07519 -0.33073,-0.21667 -0.33073,-0.931399 0,-0.572495 -0.12851,-1.409544 -0.28558,-1.860111 -0.18083,-0.518734 -0.19533,-0.980472 -0.0395,-1.258869 0.14823,-0.264875 0.15281,-0.927849 0.0115,-1.667666 -0.12898,-0.675408 -0.33664,-2.359105 -0.46147,-3.741553 -0.2411,-2.670333 -1.55966,-7.579378 -2.00307,-7.457527 -0.311377,0.08557 -0.25856,0.920742 0.26245,4.150236 0.92622,5.741249 0.92744,8.329184 0.004,7.974727 -0.52085,-0.199869 -0.663057,0.41263 -0.663057,2.8557 0,1.841082 -0.0959,2.330514 -0.604617,3.085383 -0.645157,0.95735 -1.336854,1.266077 -1.661111,0.74141 z M 27.789935,49.52614 c -0.252324,-0.252322 -1.139648,-0.569438 -1.97184,-0.70471 -1.977835,-0.321487 -2.41704,-1.631061 -0.547027,-1.631061 1.643615,0 2.814368,-1.857137 2.816449,-4.467655 0.0017,-2.215224 -0.634947,-2.805864 -1.660037,-1.539929 -0.822228,1.01541 -0.985063,3.062755 -0.262743,3.303528 0.732259,0.244086 0.0493,1.506398 -0.815023,1.506398 -2.384471,0 -1.281864,-5.233178 1.247245,-5.919643 3.306918,-0.897585 4.470545,2.574636 2.055477,6.133441 -1.070346,1.577243 -0.981529,2.042318 0.497423,2.604614 0.54081,0.205614 0.872054,0.553833 0.7361,0.773815 -0.333702,0.539939 -1.53087,0.506356 -2.096024,-0.0588 z m 2.898742,-2.66371 c -0.343858,-0.343864 -0.227575,-2.353538 0.201483,-3.482046 0.551645,-1.450935 1.525417,-0.682574 1.277309,1.007873 -0.247971,1.689555 0.565554,1.51312 0.885441,-0.192032 0.420948,-2.24384 1.423607,-1.822077 1.423607,0.598828 0,1.097853 -0.134742,2.0067 -0.299414,2.019658 -2.694607,0.212066 -3.315584,0.220556 -3.488426,0.04772 z m 5.156727,-0.190923 c -0.690649,-0.386524 -0.731848,-1.484645 -0.107144,-2.855719 0.390445,-0.856931 0.729511,-1.016831 2.156204,-1.016831 h 1.692909 l -0.06031,1.99566 c -0.03318,1.097615 -0.150132,2.009686 -0.259916,2.026825 -1.176747,0.183696 -2.965668,0.105303 -3.421743,-0.149935 z m 2.217975,-2.375477 c 0.0083,-0.951568 -0.679447,-0.884767 -0.990804,0.09624 -0.326976,1.030213 0.161553,1.901477 0.641486,1.144046 0.188763,-0.297905 0.345956,-0.856029 0.349318,-1.240277 z m 5.241696,2.350614 c -0.277629,-0.334522 -0.369893,-1.01361 -0.219256,-1.613796 0.159704,-0.636307 0.0937,-1.036234 -0.171005,-1.036234 -0.237096,0 -0.582305,0.583584 -0.767132,1.296852 -0.192922,0.744516 -0.635512,1.354524 -1.039171,1.432263 -0.622938,0.119969 -0.671171,-0.08483 -0.422937,-1.795876 0.154099,-1.062207 0.340849,-2.038729 0.415,-2.170044 0.07415,-0.131316 0.814764,-0.18683 1.645814,-0.123364 0.83105,0.06346 1.650975,0.12599 1.822052,0.138951 0.431046,0.03265 0.08773,3.577049 -0.39304,4.05782 -0.255177,0.255178 -0.557493,0.190368 -0.870325,-0.186572 z m 2.790374,-0.005 c -0.268535,-0.323563 -0.298671,-1.243608 -0.08501,-2.595212 0.376032,-2.378777 0.975421,-3.269701 1.707342,-2.537782 0.35552,0.355521 0.350461,0.852725 -0.02132,2.093571 -0.268156,0.895025 -0.382791,1.957411 -0.254742,2.36085 0.282029,0.888595 -0.743138,1.405316 -1.346282,0.678573 z m 3.063042,0.09423 c -0.648264,-0.400354 0.156878,-4.136522 0.891417,-4.136522 0.437017,0 0.571658,0.397477 0.50712,1.497071 -0.105756,1.801925 0.606086,1.999929 0.953052,0.265102 0.218445,-1.09222 1.083924,-1.942233 1.526722,-1.499436 0.08898,0.08898 0.03437,1.052298 -0.121313,2.140726 -0.28295,1.978079 -0.28376,1.978961 -1.813675,1.983453 -0.841831,0.0024 -1.716324,-0.110208 -1.943323,-0.250394 z m 10.108103,0.07906 c -0.377337,-0.233208 -0.474811,-0.736487 -0.306057,-1.580253 0.330071,-1.65036 -0.414641,-1.598494 -0.844085,0.05879 -0.198056,0.764325 -0.63384,1.354203 -1.061257,1.436515 -0.630067,0.121342 -0.689851,-0.0488 -0.455712,-1.296852 0.341703,-1.821437 -0.411519,-1.941203 -0.878346,-0.13966 -0.192923,0.744517 -0.635514,1.354523 -1.039172,1.432263 -0.622938,0.119969 -0.671171,-0.08483 -0.422937,-1.795876 0.154099,-1.062206 0.331747,-2.023994 0.394763,-2.137303 0.165817,-0.298134 5.218419,-0.136099 5.736282,0.183955 0.272436,0.168376 0.342056,0.898871 0.185127,1.94245 -0.29706,1.975428 -0.561091,2.357968 -1.308606,1.895979 z M 31.8268,61.24327 c -0.137955,-0.359516 -0.04733,-0.857167 0.201393,-1.105892 0.336825,-0.336845 0.452228,-0.309622 0.452228,0.106661 0,0.463095 0.08555,0.46823 0.499024,0.02994 0.399267,-0.423224 0.398824,-0.565689 -0.0024,-0.712681 -0.363688,-0.133308 -0.281517,-0.463059 0.299415,-1.201595 0.964753,-1.226486 1.004619,-1.846868 0.172172,-2.679316 -0.571843,-0.571846 -0.571843,-0.650232 0,-0.869667 1.032804,-0.396325 1.827329,0.149573 2.083755,1.431704 0.318076,1.590373 1.229955,1.540835 1.652489,-0.08978 0.185486,-0.715812 0.637765,-1.354958 1.009462,-1.426538 0.53136,-0.102331 0.673415,0.174419 0.673415,1.311963 0,1.334417 0.08166,1.4331 1.097853,1.326733 1.006547,-0.105364 1.114453,0.01788 1.297462,1.481962 0.207814,1.662504 0.503803,1.569262 0.950457,-0.299416 0.144322,-0.603818 0.528463,-1.097852 0.853635,-1.097852 0.443321,0 0.591224,0.499346 0.591224,1.996096 0,1.097853 -0.134741,2.01484 -0.299415,2.037751 -1.735381,0.241416 -3.378436,0.147959 -3.607261,-0.205175 -0.155141,-0.23942 -0.282759,-0.974254 -0.283598,-1.632967 -0.0024,-1.888047 -1.15397,-1.55939 -1.398796,0.39922 -0.282395,2.259158 -1.354442,2.188768 -1.520027,-0.09981 -0.06752,-0.933175 -0.278619,-1.696681 -0.469111,-1.696681 -0.190495,0 -0.766724,0.763506 -1.280508,1.696681 -1.003365,1.822392 -4.223502,1.078377 -2.973044,1.298628 z m 13.051661,0.061 c -0.575162,-0.575164 -0.53118,-2.362261 0.07756,-3.151376 0.274463,-0.35579 0.93304,-0.704511 1.463498,-0.774937 0.692443,-0.09194 1.094303,-0.515353 1.424774,-1.501212 0.253161,-0.755243 0.69035,-1.449853 0.971528,-1.543578 0.403961,-0.13465 0.450926,0.572288 0.223833,3.369262 -0.158069,1.946822 -0.337814,3.596755 -0.399434,3.666519 -0.311879,0.353097 -3.397028,0.300053 -3.761759,-0.06468 z m 2.373072,-2.081845 c 0,-1.073836 -0.690825,-1.320221 -1.053288,-0.375656 -0.306809,0.799523 0.145952,1.910911 0.651249,1.59862 0.221121,-0.136657 0.402039,-0.686996 0.402039,-1.222964 z m 2.731282,1.943444 c -0.325216,-0.391862 -0.356203,-1.010265 -0.10206,-2.036941 0.296808,-1.199054 0.581918,-1.512027 1.527373,-1.67664 0.891132,-0.155158 1.270264,-0.522894 1.624383,-1.575563 0.254062,-0.755243 0.691993,-1.449853 0.973165,-1.543577 0.403952,-0.134651 0.450923,0.572288 0.223824,3.369262 -0.158068,1.94682 -0.337804,3.596754 -0.399425,3.666518 -0.390625,0.442262 -3.445501,0.281027 -3.847256,-0.203059 z m 2.458568,-2.191934 c 0,-1.04183 -0.08869,-1.149363 -0.598829,-0.725995 -0.613193,0.508904 -0.800147,1.661701 -0.343537,2.118317 0.489934,0.489929 0.942366,-0.178528 0.942366,-1.392322 z m 2.795593,2.468422 c -0.52546,-0.324754 -0.502405,-0.553155 0.634517,-6.288367 0.09792,-0.494034 0.468844,-0.898244 0.82424,-0.898244 0.558138,0 0.601971,0.312788 0.321715,2.295512 -0.178463,1.26253 -0.324747,2.872322 -0.325079,3.577316 -8e-4,1.345668 -0.570888,1.860437 -1.455393,1.313783 z m 3.092859,-0.03338 c -1.438146,-0.836144 -0.495434,-3.721258 1.29746,-3.970754 1.757209,-0.244529 2.312556,1.197031 0.777601,2.018512 -0.509205,0.272523 -0.773603,0.754816 -0.698627,1.2744 0.141682,0.981776 -0.397218,1.24716 -1.376434,0.677842 z M 85.82112,46.480198 c -0.345563,-0.416375 -0.378796,-0.667757 -0.08826,-0.667757 0.529475,0 1.146794,0.831192 0.842964,1.135024 -0.110281,0.110281 -0.449882,-0.1 -0.75469,-0.467262 z"
       style="fill:#000000;stroke-width:0.26458332;fill-opacity:1"
       sodipodi:nodetypes="ccccccccscscscccccscccsccccccccssccccccccccscccccccsccsccssscsccccssscscssssssccsccscscccccscsccsscsssccscssssscscsccccccsccsccscscccssccssssssccccccscccccccccscssssccsccccsccsccscccscccsscccssssscsccccccsccccccscccccscssccccscccccccscccccscscssscccccsccsccccsscccccsccccssssccccccccccccccsccscccccscccsccccccccsccsccsscscscsscccscssccccccccccccccccccccccccccccccsccccsccccsccc" />
  </g>
</svg>
